<svg xmlns="http://www.w3.org/2000/svg" viewBox="0 0 64 64" fill="none">
  <rect width="64" height="64" rx="16" fill="#18181f" />
  <rect x="1" y="1" width="62" height="62" rx="15" stroke="#cae39f" stroke-opacity="0.3" stroke-width="2" />
  <!-- Stylized Pencil Graphic -->
  <g transform="translate(12, 12)">
    <!-- Pencil Body -->
    <path d="M7 33L31 9L35 13L11 37L5 39L7 33Z" fill="#cae39f" />
    <!-- Pencil Tip -->
    <path d="M5 39L7 33L11 37L5 39Z" fill="#8fb654" />
    <path d="M5 39L7 35L9 37L5 39Z" fill="#18230f" />
    <!-- Pencil Eraser Top -->
    <path d="M31 9L35 5C36 4 38 4 39 5L40 6C41 7 41 9 40 10L36 14L31 9Z" fill="#ff8787" />
    <!-- Metal Band -->
    <path d="M29 11L33 7L35 9L31 13L29 11Z" fill="#e2e8f0" />
    <!-- Core line accent -->
    <line x1="12" y1="34" x2="31" y2="15" stroke="#18230f" stroke-width="1.5" stroke-linecap="round" />
  </g>
</svg>
